<svg xmlns="http://www.w3.org/2000/svg" version="1.1" viewBox="-5.0 -10.0 110.0 110.0">
 <path d="m29.75 31.25c0-5.3867 2.1406-10.555 5.9492-14.363 3.8086-3.8086 8.9766-5.9492 14.363-5.9492s10.555 2.1406 14.363 5.9492c3.8086 3.8086 5.9492 8.9766 5.9492 14.363s-2.1406 10.555-5.9492 14.363c-3.8086 3.8086-8.9766 5.9492-14.363 5.9492-5.3867-0.007812-10.547-2.1484-14.355-5.957-3.8086-3.8086-5.9492-8.9688-5.957-14.355zm59.246 49.555c-2.5-8.332-7.5664-15.664-14.469-20.953-3.6094-2.7617-7.6602-4.8867-11.984-6.2891-0.50781-0.16797-1.0703-0.058594-1.4805 0.28516-3.0977 2.5664-6.9961 3.9688-11.02 3.9648-4.0234-0.003906-7.918-1.418-11.008-3.9961-0.41406-0.34375-0.97266-0.45312-1.4805-0.28906-4.3633 1.4062-8.4531 3.543-12.098 6.3242-6.9023 5.2891-11.961 12.621-14.457 20.953-0.22656 0.76562 0.16406 1.582 0.89844 1.8867 0.625 0.26172 15.562 6.3711 38.102 6.3711 22.664 0 37.484-6.1094 38.105-6.3711 0.73438-0.30859 1.1211-1.1211 0.89062-1.8867z"/>
</svg>