<svg xmlns="http://www.w3.org/2000/svg" version="1.1" viewBox="-5.0 -10.0 110.0 110.0">
 <path d="m50 50c5.8008 0 11.367-2.3047 15.469-6.4062s6.4062-9.668 6.4062-15.469-2.3047-11.367-6.4062-15.469-9.668-6.4062-15.469-6.4062-11.367 2.3047-15.469 6.4062-6.4062 9.668-6.4062 15.469 2.3047 11.367 6.4062 15.469 9.668 6.4062 15.469 6.4062zm0-37.5c4.1445 0 8.1172 1.6445 11.047 4.5781 2.9336 2.9297 4.5781 6.9023 4.5781 11.047s-1.6445 8.1172-4.5781 11.047c-2.9297 2.9336-6.9023 4.5781-11.047 4.5781s-8.1172-1.6445-11.047-4.5781c-2.9336-2.9297-4.5781-6.9023-4.5781-11.047s1.6445-8.1172 4.5781-11.047c2.9297-2.9336 6.9023-4.5781 11.047-4.5781zm36.562 69.906c-0.46484-1.8906-1.082-3.7422-1.8438-5.5312-5.5625-12.719-18.875-20.625-34.719-20.625-18 0-32.656 10.375-36.469 25.844-0.70312 2.8008-0.074219 5.7695 1.7031 8.0469 1.7734 2.2773 4.5039 3.6094 7.3906 3.6094h54.75c2.9023 0.019531 5.6484-1.3086 7.4375-3.5938 1.7305-2.1836 2.375-5.0352 1.75-7.75zm-6.6562 3.875c-0.60156 0.78516-1.543 1.2344-2.5312 1.2188h-54.75c-0.98438 0.03125-1.9258-0.40234-2.5391-1.1719-0.61719-0.76953-0.83203-1.7812-0.58594-2.7344 3.25-12.812 15.188-21.094 30.5-21.094 13.312 0 24.438 6.4688 29 16.875 0.60938 1.4453 1.1016 2.9414 1.4688 4.4688 0.21094 0.85547 0 1.7617-0.5625 2.4375z"/>
</svg>