<svg xmlns="http://www.w3.org/2000/svg" version="1.1" viewBox="-5.0 -10.0 110.0 110.0">
 <path d="m50 36.301c-7.5 0-13.699 6.1016-13.699 13.699 0 7.6016 6.1992 13.699 13.699 13.699s13.699-6.1992 13.699-13.699-6.1992-13.699-13.699-13.699zm0 24.301c-5.8008 0-10.602-4.8008-10.602-10.602s4.8008-10.602 10.602-10.602 10.602 4.8008 10.602 10.602-4.8008 10.602-10.602 10.602z"/>
 <path d="m50 27.801c-21.699 0-38.898 20.301-39.602 21.199-0.5 0.60156-0.5 1.3984 0 2 0.69922 0.89844 17.898 21.199 39.602 21.199 21.699 0 38.898-20.301 39.602-21.199 0.5-0.60156 0.5-1.3984 0-2-0.70312-0.89844-17.902-21.199-39.602-21.199zm0 41.301c-17.602 0-32.699-15.102-36.398-19.102 3.6992-4 18.801-19.102 36.398-19.102 17.602 0 32.699 15.102 36.398 19.102-3.6992 4-18.797 19.102-36.398 19.102z"/>
</svg>