<svg xmlns="http://www.w3.org/2000/svg" version="1.1" viewBox="-5.0 -10.0 110.0 110.0">
 <path d="m50 18c1.1055 0 2 0.89453 2 2v10c0 1.1055-0.89453 2-2 2s-2-0.89453-2-2v-10c0-1.1055 0.89453-2 2-2zm-18.695 3.2695c0.95703-0.55469 2.1797-0.22656 2.7305 0.73047l5 8.6602c0.55469 0.95703 0.22656 2.1797-0.73047 2.7305-0.95703 0.55469-2.1797 0.22656-2.7344-0.73047l-5-8.6602c-0.55078-0.95703-0.22266-2.1797 0.73438-2.7305zm37.695 0c0.95703 0.55078 1.2852 1.7734 0.73047 2.7305l-5 8.6602c-0.55078 0.95703-1.7734 1.2852-2.7305 0.73047-0.95703-0.55078-1.2852-1.7734-0.73047-2.7305l5-8.6602c0.55078-0.95703 1.7734-1.2852 2.7305-0.73047zm-53.59 8.9805c0.67188-0.87891 1.9258-1.0469 2.8047-0.375l7.9453 6.0703c0.87891 0.67188 1.0469 1.9258 0.375 2.8047-0.66797 0.875-1.9258 1.043-2.8008 0.375l-7.9492-6.0703c-0.87891-0.67188-1.0469-1.9258-0.375-2.8047zm69.484 0c0.66797 0.87891 0.5 2.1328-0.375 2.8047l-7.9492 6.0703c-0.87891 0.66797-2.1328 0.5-2.8047-0.375-0.66797-0.87891-0.5-2.1328 0.37891-2.8047l7.9453-6.0703c0.87891-0.67188 2.1328-0.50391 2.8047 0.375zm-69.508 21.098c19.098-20.465 50.129-20.465 69.227 0l4.125 4.418c1.6836 1.8008 1.6836 4.668 0 6.4688l-4.125 4.418c-19.098 20.465-50.129 20.465-69.227 0l-4.125-4.418c-1.6836-1.8008-1.6836-4.668 0-6.4688zm14.02-5.9844c-3.9961 2.2148-7.7422 5.1211-11.098 8.7148l-4.125 4.418c-0.24609 0.26172-0.24609 0.74609 0 1.0078l4.125 4.418c3.1992 3.4297 6.7617 6.2305 10.551 8.4062-2.4414-3.7812-3.8594-8.2617-3.8594-13.078 0-5.1602 1.6289-9.9453 4.4062-13.887zm10.648-4.1719c-0.039063 0.027344-0.082032 0.050782-0.125 0.074219-6.5312 3.4883-10.93 10.25-10.93 17.984 0 7.1094 3.7109 13.391 9.3789 17.074 0.035156 0.019531 0.066406 0.042969 0.10156 0.066406 7.5391 2.1445 15.5 2.1445 23.039 0 0.035157-0.023437 0.066407-0.046875 0.10156-0.066406 5.668-3.6836 9.3789-9.9648 9.3789-17.074 0-7.7344-4.3984-14.496-10.93-17.984-0.042968-0.023437-0.085937-0.046875-0.125-0.074219-6.5391-1.5898-13.352-1.5898-19.891 0zm30.539 4.1719c2.7773 3.9414 4.4062 8.7266 4.4062 13.887 0 4.8164-1.418 9.2969-3.8594 13.078 3.7891-2.1758 7.3516-4.9766 10.551-8.4062l4.125-4.418c0.24609-0.26172 0.24609-0.74609 0-1.0078l-4.125-4.418c-3.3555-3.5938-7.1016-6.5-11.098-8.7148zm-20.594 6.6367c-3.8672 0-7 3.1328-7 7s3.1328 7 7 7 7-3.1328 7-7-3.1328-7-7-7zm-11 7c0-6.0742 4.9258-11 11-11s11 4.9258 11 11-4.9258 11-11 11-11-4.9258-11-11z" fill-rule="evenodd"/>
</svg>